<svg width="300" height="60" xmlns="http://www.w3.org/2000/svg" class="iconLeft">
  <linearGradient gradientTransform="rotate(25)" id="96f697b8-8fb7-45dd-8600-339dfc7d1ff1" x1="0%" y1="0%" x2="100%" y2="0%">
   <stop offset="0%" stop-color="#00bcd4"/>
   <stop offset="100%" stop-color="#e60000"/>
  </linearGradient>
   <g stroke="null" id="a440b58b-1b29-4463-96cf-b60a43b4c189" fill="#000000" transform="matrix(2.876951594724671,0,0,2.876951594724671,154.94256375234923,176.1499442674023) ">
    <path stroke="null" d="m-13.14946,-56.67953c-0.49,-0.06 -0.71,-0.06 -1.23,-0.06l-3.33,0l0,9.66l3.3,0c0.52,0 0.74,0 1.23,-0.06c2.24,-0.26 4.01,-1.94 4.01,-4.9c0,-2.95 -1.74,-4.38 -3.98,-4.64zm-0.46,8.03c-0.31,0.04 -0.6,0.04 -1.02,0.04l-1.15,0l0,-6.62l1.17,0c0.44,0 0.72,0.02 1.04,0.06c1.43,0.18 2.35,1.26 2.35,3.16c0,1.98 -0.95,3.18 -2.39,3.36zm12.82,-5.88l-2.11,0l-1.82,5.98l-1.85,-5.98l-2.16,0l3.04,7.8l-0.1,0.24c-0.3,0.74 -0.74,0.99 -1.4,0.99c-0.19,0 -0.37,0 -0.57,-0.03l0,1.33c0.28,0.05 0.52,0.06 0.87,0.06c1.51,0 2.32,-0.64 3.11,-2.66l2.99,-7.73zm7.8,1.89c-0.15,-1.3 -1.06,-2.08 -2.65,-2.08c-0.71,0 -1.26,0.14 -1.79,0.51l-0.57,0.89l0,-1.21l-1.93,0l0,7.45l1.93,0l0,-3.4c0,-2.07 0.74,-2.89 1.68,-2.89c0.94,0 1.37,0.54 1.43,1.32c0.02,0.38 0.02,0.73 0.02,1.04l0,3.93l1.94,0l0,-4.2c0,-0.6 -0.02,-0.98 -0.06,-1.36zm5.11,-2.08c-2.48,0 -3.86,1.65 -3.86,3.92c0,2.25 1.38,3.92 3.86,3.92c2.48,0 3.86,-1.67 3.86,-3.92c0,-2.27 -1.38,-3.92 -3.86,-3.92zm0,6.48c-1.16,0 -1.86,-0.97 -1.86,-2.56c0,-1.61 0.7,-2.57 1.86,-2.57c1.16,0 1.86,0.96 1.86,2.57c0,1.59 -0.7,2.56 -1.86,2.56zm12.35,-8.7c-2.68,0 -4.68,1.92 -4.68,5.09c0,3.08 1.85,4.97 4.54,4.97c2.48,0 4.04,-1.35 4.25,-3.41l0.02,-0.14l-1.92,0l-0.03,0.14c-0.25,1.21 -0.98,1.96 -2.24,1.96c-1.47,0 -2.57,-1.23 -2.57,-3.64c0,-2.19 1.05,-3.52 2.6,-3.52c1.29,0 2.02,0.7 2.25,1.89l0.03,0.14l1.93,0l-0.01,-0.14c-0.2,-1.91 -1.55,-3.34 -4.17,-3.34zm12.49,4.3c-0.16,-1.3 -1.07,-2.08 -2.65,-2.08c-0.71,0 -1.26,0.14 -1.79,0.51l-0.58,0.89l0,-4.12l-1.93,0l0,10.36l1.93,0l0,-3.4c0,-2.07 0.75,-2.87 1.68,-2.89c0.94,0 1.38,0.54 1.43,1.32c0.03,0.38 0.03,0.73 0.03,1.04l0,3.93l1.93,0l0,-4.2c0,-0.6 -0.01,-0.98 -0.05,-1.36zm6.07,5.56l1.89,0c-0.11,-0.83 -0.14,-1.33 -0.14,-1.89l0,-2.41c0,-0.4 -0.01,-0.8 -0.04,-1.15c-0.11,-1.28 -0.9,-2.19 -2.98,-2.19c-1.78,0 -3.14,0.95 -3.19,2.63l1.87,-0.02c0.06,-0.81 0.48,-1.26 1.25,-1.26c0.75,0 1.09,0.38 1.15,0.9c0.02,0.25 0.02,0.48 0.02,0.7l0,0.15l-0.47,0c-2.7,0 -4.1,0.93 -4.1,2.57c0,1.41 1.1,2.17 2.39,2.17c0.7,0 1.33,-0.14 1.85,-0.49l0.36,-0.8l0.14,1.09zm-1.61,-1.16c-0.68,0 -1.13,-0.31 -1.13,-0.97c0,-0.98 1.03,-1.33 2.57,-1.22l0,0.61c0,1.03 -0.65,1.58 -1.44,1.58zm7.46,-4.96l1.54,0l0,-1.27l-1.54,0l0,-1.84l-1.93,0l0,1.84l-1.09,0l0,1.27l1.09,0l0,3.67c0,0.42 0,0.74 0.03,1.08c0.08,1.05 0.6,1.52 2.04,1.52c0.44,0 0.84,-0.02 1.28,-0.09l0,-1.26c-1.08,0.08 -1.35,-0.09 -1.4,-0.82c-0.02,-0.19 -0.02,-0.4 -0.02,-0.65l0,-3.45z" id="svg_2"/>
   </g>
   <g stroke="null" id="f70952d4-10bf-4913-a298-217fa1351fe0" fill="url(#96f697b8-8fb7-45dd-8600-339dfc7d1ff1)" transform="matrix(0.943117204985503,0,0,0.943117204985503,50.47048392015857,157.3897351264424) ">
    <style stroke="null" transform="translate(0,-0.3534378707408905) translate(0,0.3534378707408905) translate(0,-0.3534378707408905) translate(0,0.3534378707408905) translate(0,0.3534378707408905) translate(0,0.3534378707408905) translate(0,0.3534378707408905) translate(0,0.3534378707408905) translate(0,-186.518798828125) translate(0,0.06492967903614044) translate(-57.835289001464844,0) ">.st0{display:none}.st1{display:inline}</style>
    <g stroke="null" class="st0" id="svg_3">
     <path stroke="null" class="st1" d="m431.86471,-286.54012c0,-0.4 -0.1,-0.8 -0.4,-1.1c-1.5,-2.3 -3.2,-4.4 -4.9,-6.6c2,-3.6 3.2,-7.7 3.3,-12.7c0.2,-8.5 -3,-16.3 -11.3,-19.3c-3.5,-1.3 -4.3,4.3 -1.1,5.5c7.9,3 8.4,13.4 5.2,21.9c-0.3,-0.3 -0.6,-0.7 -0.8,-1l0,-0.2l0,-0.1c-0.1,-1.5 -1.2,-3.1 -3.3,-2.6c-7.6,1.5 -15.8,0.1 -23.5,1c-0.8,0.1 -1.2,0.6 -1.3,1.2c-11.1,11.4 -23.8,21.4 -35.2,32.5c-1.4,0.7 -2.4,2.7 -0.6,4.3c4.7,4.3 8.1,10.1 12.1,15.1s7.8,10.3 11.7,15.5l0.6,0.6c0.7,0.6 1.6,1 2.6,0.4c14.5,-8.1 26.6,-19.7 40.6,-28.5c1.5,-1 1.4,-2.7 0.5,-3.8c0.9,-2.4 1.7,-4.9 2.5,-7.3c1.2,-3.6 2.1,-8.3 4.1,-11.5c0.9,-1.4 0.3,-2.6 -0.8,-3.3zm-7.6,13.1c-1,3.1 -2,6.1 -2.8,9.2c-11.1,10.5 -25,18 -37.4,26.8c-3.6,-4.6 -7.2,-9.1 -10.7,-13.7c-3.5,-4.5 -7.6,-9.1 -10.6,-14.1c10.7,-11 22.1,-23 34.8,-31.6c0.2,-0.2 0.4,-0.3 0.6,-0.5c6.7,0.1 13.7,-1.3 20.3,-0.3c0.1,0.1 0.2,0.1 0.3,0.2c0.7,0.9 1.3,1.9 2,2.8c-0.9,1.5 -1.8,2.9 -2.9,4.1c-0.5,-0.4 -1.1,-0.8 -1.6,-1c-1.1,-0.5 -2.2,-0.7 -3.4,-0.8c-2.2,-0.3 -4.7,0 -6.3,1.7c-3.3,3.5 -1.8,8.9 1.5,11.7c3.6,3.1 9.9,3.7 13.3,-0.1c2.3,-2.5 2.5,-6.4 0.7,-9c0.6,-0.7 1.2,-1.5 1.8,-2.2c1.2,1.7 2.5,3.5 3.9,5.1c-0.2,3.9 -2.4,8 -3.5,11.7zm-6.6,-9.9l0.6,-0.6c-0.1,0.6 -0.6,1.2 -1.4,1.7c-1.8,1.1 -4.5,0.6 -6.1,-0.6c-1.4,-1.1 -2.1,-3.1 -0.7,-4.5c0.8,-0.7 2.1,-0.9 3.1,-0.7c0.2,0 0.7,0.2 1.2,0.3c-0.1,0 -0.1,0.1 -0.2,0.1c-3,1.6 0.6,7.1 3.5,4.3zm1158.4,-97.2c9.9,-15.6 11.5,-41.4 1,-57.1c-10.9,-16.2 -29.3,-18 -47,-15.6c-0.1,0 -0.2,0 -0.3,-0.1c-1.6,-0.2 -2.5,0.7 -2.8,1.7l0,1.2c0.1,0.8 0.6,1.5 1.3,1.8c0.6,0.4 1.4,0.5 2.4,0.2c0.1,0 0.3,-0.1 0.4,-0.1c13.6,-1.5 21,14.1 21.4,25.3c0.3,6.8 -1.3,13.3 -5,19.1c-10.1,15.8 -30.8,17.6 -43.5,4c-2.5,-2.6 -7.1,0.2 -5.3,3.2c-0.1,0.3 -0.1,0.7 0,1.1c6.9,37.2 56.9,47.7 77.4,15.3zm-1227.8,87.7c15.2,9.3 36.1,4.7 45.9,-11.7c10.6,-17.7 4.8,-40.1 -12.2,-48.4c16.9,-1.1 33.1,9 37,26.8c2.8,12.9 0.3,30.2 -7.3,41c-17.7,25.4 -52.2,17.3 -63.4,-7.7zm1518.7,-154.8c-0.2,-1 -0.9,-1.9 -2,-2.3c-21.6,-7 -44.2,-6.8 -64.1,5.6c-14.7,9.2 -27.7,27.8 -15,44.1l0.2,0.2l0.2,0.2c2.2,2 5.5,0.2 4.4,-2.6c4,-3.9 8.4,-7.3 13.1,-10.2c-14.1,13.4 -24.7,32 -28.7,49.5c-0.4,1.9 2.7,3.7 3.5,1.6c3.2,-8.9 6.7,-17.7 11.5,-25.8c13.8,7.4 28.2,8.1 40.8,-2.9c15.8,-13.8 11.8,-50 34.4,-53.4c2,-0.5 2.4,-2.4 1.7,-4zm-1543.5,174.9c-2.7,7.8 -3.7,16.2 -7.9,23.4c-7.9,13.4 -26.8,22.9 -41.2,12c1.2,-1.7 2.4,-3.4 3.7,-5c8.6,-10.5 19.3,-17.9 30.1,-26c1.2,-0.9 1,-2.2 0.3,-3.1c-0.5,-0.8 -1.3,-1.4 -2.4,-1.2c-14.1,3 -26.1,11 -35.7,21.5c-9,-19.3 13.2,-34.6 29.5,-39.9c12.1,-3.9 25.1,-4.3 37.4,-1.1c-6.9,4.1 -10.9,11 -13.8,19.4z" id="svg_4"/>
     <g stroke="null" class="st1" id="svg_5">
      <path stroke="null" d="m1121.06471,-315.94012c-4.2,10.8 -6.9,22.1 -10,33.3c-0.5,-0.1 -1,-0.1 -1.5,-0.3c-4.8,-1.7 -5.9,7.2 -0.6,7.4c-1.3,4.3 -2.8,8.6 -4.4,12.8c-2.1,5.1 6.4,7.9 6.8,2.9c0.5,-5.2 1.5,-10.5 2.9,-15.7c2.5,0.3 5,0.8 7.1,0.9c2.1,0.1 4.2,0.2 6.3,0.2c0.5,4.8 1.2,9.6 2.6,14.2c1.2,4.1 7.1,3.4 7.1,-0.9c0,-17.5 -6.5,-36.8 -10.5,-53.8c-0.5,-2.6 -4.8,-3.8 -5.8,-1zm-0.1,33.4c-1.4,0 -3,0.1 -4.7,0.2c2.1,-6.8 4.6,-13.5 7,-20.2c1.3,6.2 2.5,12.4 3.4,18.7c0.1,0.4 0.1,0.8 0.2,1.2c-2,0 -4,0.1 -5.9,0.1zm70.4,-3.4c-5.2,-6.9 -13.3,-10 -21.1,-9.3c-0.4,-2.4 -0.8,-4.8 -1.2,-7.3c6.4,-1.3 12.8,-2.6 19,-4.7c4.5,-1.5 2,-8 -2.3,-7.2c-6,1.1 -11.8,2.8 -17.7,4.5c-0.2,-1.9 -0.5,-3.8 -0.7,-5.7c-0.5,-5.3 -8.4,-4.6 -7.1,0.9c0.5,2.2 0.9,4.4 1.4,6.6c-5.4,1.6 -10.8,3 -16.3,3.8c-4.6,0.6 -2.1,8.9 2.3,7.3c4.9,-1.8 10.1,-3.1 15.3,-4.3c0.4,2.4 0.8,4.9 1.2,7.3c-2.9,1 -5.6,2.6 -8,4.7c-9.2,8 -9.6,23.5 3.2,28.1c5.9,2.2 12.1,0.4 16.9,-3.4c5.8,-4.7 6.7,-10.3 8.1,-16.6c5.1,6.8 5.2,17.6 -3.1,24.1c-3.4,2.6 0.3,8.7 3.9,6.2c11.3,-7.8 14.9,-23.5 6.2,-35zm-99.4,21.9c-11.9,-2.7 -4.6,-15.3 2.9,-18.8c0.9,6.1 1.8,12.2 2.9,18.3c-1.8,0.7 -3.7,0.9 -5.8,0.5zm12,-5c-0.8,-5 -1.8,-10 -2.7,-15c2.4,0 4.7,0.5 6.7,1.4l0,0.3c1,4.4 -0.8,9.5 -4,13.3z" id="svg_6"/>
     </g>
     <g stroke="null" class="st1" id="svg_7">
      <path stroke="null" d="m1069.36471,-433.64012c-0.1,-1.9 -1.8,-3.5 -3.7,-3.6c-26.9,-0.7 -53.9,-0.5 -80.9,-0.4c-1.2,-0.6 -2.7,-0.4 -3.6,0.5c-2.1,1.2 -2.3,4.4 -0.8,6.2c0.2,13.5 -0.4,27 -0.9,40.5c-0.1,1.9 1.8,3.4 3.6,3.5c28.1,0.7 56.4,0.7 84.5,0.5c2.1,0 3.8,-1.9 3.7,-4c-1,-14.4 -1.5,-28.8 -1.9,-43.2zm-83.3,39.7c-0.1,-11.8 -0.3,-23.7 0.2,-35.5c25.4,0 50.8,0.1 76.2,-0.5c0.4,11.9 0.7,23.7 0.9,35.6c-25.8,-0.2 -51.6,-0.1 -77.3,0.4z" id="svg_8"/>
      <path stroke="null" d="m1006.26471,-425.44012c-4.2,-0.7 -7.8,-0.1 -12,0.1l-0.2,0c-3.5,-1 -4.3,3.5 -2.7,5.4c-0.5,6.4 -0.9,12.9 -1.1,19.3c0,1.5 1.4,3.3 2.9,3.6c3.4,0.6 6.5,0.6 10,0.1c0.1,0 0.3,-0.1 0.4,-0.1c1.7,0.5 3.5,-0.1 3.9,-2.3c1.2,-7.5 1.8,-15 1.4,-22.6c0,-1.5 -1.1,-3.2 -2.6,-3.5zm24.6,0c-4.2,-0.7 -7.8,-0.1 -12,0.1l-0.2,0c-3.5,-1 -4.3,3.5 -2.7,5.4c-0.5,6.4 -0.9,12.9 -1.1,19.3c0,1.5 1.4,3.3 2.9,3.6c3.4,0.6 6.5,0.6 10,0.1c0.1,0 0.3,-0.1 0.4,-0.1c1.7,0.5 3.5,-0.1 3.9,-2.3c1.2,-7.5 1.8,-15 1.4,-22.6c0,-1.5 -1.1,-3.2 -2.6,-3.5zm24.6,0c-4.2,-0.7 -7.8,-0.1 -12,0.1l-0.2,0c-3.5,-1 -4.3,3.5 -2.7,5.4c-0.5,6.4 -0.9,12.9 -1.1,19.3c0,1.5 1.4,3.3 2.9,3.6c3.4,0.6 6.5,0.6 10,0.1c0.1,0 0.3,-0.1 0.4,-0.1c1.7,0.5 3.5,-0.1 3.9,-2.3c1.2,-7.5 1.8,-15 1.4,-22.6c0,-1.5 -1.1,-3.2 -2.6,-3.5z" id="svg_9"/>
     </g>
     <g stroke="null" class="st1" id="svg_10">
      <path stroke="null" d="m1187.06471,-433.64012c-0.1,-1.9 -1.8,-3.5 -3.7,-3.6c-26.9,-0.7 -53.9,-0.5 -80.9,-0.4c-1.2,-0.6 -2.7,-0.4 -3.6,0.5c-2.1,1.2 -2.3,4.4 -0.8,6.2c0.2,13.5 -0.4,27 -0.9,40.5c-0.1,1.9 1.8,3.4 3.6,3.5c28.1,0.7 56.4,0.7 84.5,0.5c2.1,0 3.8,-1.9 3.7,-4c-1,-14.4 -1.5,-28.8 -1.9,-43.2zm-83.3,39.7c-0.1,-11.8 -0.3,-23.7 0.2,-35.5c25.4,0 50.8,0.1 76.2,-0.5c0.4,11.9 0.7,23.7 0.9,35.6c-25.7,-0.2 -51.5,-0.1 -77.3,0.4z" id="svg_11"/>
      <path stroke="null" d="m1123.96471,-425.44012c-4.2,-0.7 -7.8,-0.1 -12,0.1l-0.2,0c-3.5,-1 -4.3,3.5 -2.7,5.4c-0.5,6.4 -0.9,12.9 -1.1,19.3c0,1.5 1.4,3.3 2.9,3.6c3.4,0.6 6.5,0.6 10,0.1c0.1,0 0.3,-0.1 0.4,-0.1c1.7,0.5 3.5,-0.1 3.9,-2.3c1.2,-7.5 1.8,-15 1.4,-22.6c0,-1.5 -1.1,-3.2 -2.6,-3.5zm24.6,0c-4.2,-0.7 -7.8,-0.1 -12,0.1l-0.2,0c-3.5,-1 -4.3,3.5 -2.7,5.4c-0.5,6.4 -0.9,12.9 -1.1,19.3c0,1.5 1.4,3.3 2.9,3.6c3.4,0.6 6.5,0.6 10,0.1c0.1,0 0.3,-0.1 0.4,-0.1c1.7,0.5 3.5,-0.1 3.9,-2.3c1.2,-7.5 1.8,-15 1.4,-22.6c0,-1.5 -1.1,-3.2 -2.6,-3.5z" id="svg_12"/>
     </g>
     <g stroke="null" class="st1" id="svg_13">
      <path stroke="null" d="m1299.86471,-433.64012c-0.1,-1.9 -1.8,-3.5 -3.7,-3.6c-26.9,-0.7 -53.9,-0.5 -80.9,-0.4c-1.2,-0.6 -2.7,-0.4 -3.6,0.5c-2.1,1.2 -2.3,4.4 -0.8,6.2c0.2,13.5 -0.4,27 -0.9,40.5c-0.1,1.9 1.8,3.4 3.6,3.5c28.1,0.7 56.4,0.7 84.5,0.5c2.1,0 3.8,-1.9 3.7,-4c-0.9,-14.4 -1.4,-28.8 -1.9,-43.2zm-83.2,39.7c-0.1,-11.8 -0.3,-23.7 0.2,-35.5c25.4,0 50.8,0.1 76.2,-0.5c0.4,11.9 0.7,23.7 0.9,35.6c-25.8,-0.2 -51.6,-0.1 -77.3,0.4z" id="svg_14"/>
      <path stroke="null" d="m1236.86471,-425.44012c-4.2,-0.7 -7.8,-0.1 -12,0.1l-0.2,0c-3.5,-1 -4.3,3.5 -2.7,5.4c-0.5,6.4 -0.9,12.9 -1.1,19.3c0,1.5 1.4,3.3 2.9,3.6c3.4,0.6 6.5,0.6 10,0.1c0.1,0 0.3,-0.1 0.4,-0.1c1.7,0.5 3.5,-0.1 3.9,-2.3c1.2,-7.5 1.8,-15 1.4,-22.6c0,-1.5 -1.2,-3.2 -2.6,-3.5z" id="svg_15"/>
     </g>
     <path stroke="null" class="st1" d="m1408.86471,-433.64012c-0.1,-1.9 -1.8,-3.5 -3.7,-3.6c-26.9,-0.7 -53.9,-0.5 -80.9,-0.4c-1.2,-0.6 -2.7,-0.4 -3.6,0.5c-2.1,1.2 -2.3,4.4 -0.8,6.2c0.2,13.5 -0.4,27 -0.9,40.5c-0.1,1.9 1.8,3.4 3.6,3.5c28.1,0.7 56.4,0.7 84.5,0.5c2.1,0 3.8,-1.9 3.7,-4c-0.9,-14.4 -1.5,-28.8 -1.9,-43.2zm-83.3,39.7c-0.1,-11.8 -0.3,-23.7 0.2,-35.5c25.4,0 50.8,0.1 76.2,-0.5c0.4,11.9 0.7,23.7 0.9,35.6c-25.7,-0.2 -51.5,-0.1 -77.3,0.4zm153.3,-25.6c-6.9,-0.9 -13.8,-1.6 -20.7,-2.2c4.7,-11.5 6.9,-23.5 11.3,-35c1.3,-3.4 -4.2,-5.1 -4.4,-1.8c0,0.2 -0.1,0.4 -0.1,0.5c0,0 -0.1,0 -0.1,0.1c-15.1,14.6 -28,32.4 -39.4,50c-0.9,1.4 -0.1,3 1.5,3.2c6.9,0.9 13.8,1.6 20.7,2.2c-4.7,11.5 -6.9,23.5 -11.3,35c-1.3,3.4 4.2,5.1 4.4,1.8c0,-0.2 0.1,-0.4 0.1,-0.5c0,0 0.1,0 0.1,-0.1c15.1,-14.6 28,-32.4 39.4,-50c0.9,-1.3 0.1,-3 -1.5,-3.2zm-190.3,72.3c2.2,-10.5 6.9,-20.7 10.7,-30.4c0.6,-1.5 -0.7,-3 -2,-3.2c-0.3,-0.3 -0.7,-0.5 -1.2,-0.5c-6.3,-0.6 -12.5,-1 -18.8,-1.3c10.9,-14.5 22.5,-28.6 33.5,-43.1c-2.2,10.5 -6.9,20.7 -10.7,30.4c-0.6,1.5 0.7,3 2,3.2c0.3,0.3 0.7,0.5 1.2,0.5c6.3,0.6 12.5,1 18.8,1.3c-11,14.5 -22.5,28.6 -33.5,43.1zm-650.3,46.2c-8.2,-16.2 -27.1,-19.7 -43.7,-18.6c-17.6,1.2 -35.9,3.1 -42.7,21.8c-6.8,18.7 -4.1,38.6 3.2,56.6c0.1,0.3 0.3,0.5 0.4,0.7c0.3,1 1.2,1.8 2.4,1.5c7.1,-1.7 15.1,-1.3 22.4,-2.3c0.8,-0.1 1.4,-0.5 1.8,-1.1c1.1,0.4 2.4,-0.2 2.3,-1.8c-0.4,-10.3 -6.7,-34.4 6.7,-38.4c9.4,-2.8 15.6,6.6 16.3,14.8c0.7,7.6 -2.3,15.1 -4.9,22.1c-0.3,0.9 -0.2,1.7 0.2,2.4c0.1,0.8 0.5,1.5 1.5,1.7c8.2,1.5 16.8,1.8 25.1,2.9c0.7,0.1 1.3,0 1.8,-0.3c1.5,0.9 3.8,0.6 4.5,-1.6c6.1,-17.6 11.6,-42.7 2.7,-60.4zm592.2,8.2c-7.1,0.9 -14.5,3.2 -21.6,3.6c-1.4,-3.3 -2.5,-6.8 -3.4,-10.3c7.9,-1 16.1,-0.7 24.1,-1.3c0.2,2.9 0.6,5.6 0.9,8zm73.7,-96.4c-16.8,-1.7 -18.4,15.1 -17.2,29.6c-8.1,0.4 -16.4,1.7 -24.5,1.7c-2.3,-11.2 -2,-23.1 1,-34.1c5.5,-20.2 23.5,-21.9 41.6,-22.7c17.1,-0.8 35,4.6 38.8,23.4c2.1,10 1.4,20.7 -0.7,31.1c-3.7,-0.2 -7.5,-0.4 -11.2,-0.4c-3.7,0 -7.9,0.5 -11.6,0.1c1.9,-13.2 -0.4,-27.1 -16.2,-28.7zm-673.2,145.2c-0.1,0 -0.2,-0.1 -0.3,-0.1c-7,-1.1 -14.8,-2.1 -22,-1.8c1.1,-3.1 2.1,-6.6 2.8,-10.3c7.1,-1 15.3,0.4 22.5,1.3c-0.9,3.7 -1.9,7.4 -3,10.9z" id="svg_16"/>
     <g stroke="null" class="st1" id="svg_17">
      <path stroke="null" d="m748.66471,-272.44012c-8.1,9.8 -17.6,18 -26.7,26.8c-7.6,-6.5 -14.8,-13.5 -22.1,-20.2c-1.3,1.8 -2.6,3.5 -3.8,5.3c6.8,7.6 14.5,14.5 22.4,20.8c0.7,0.5 1.4,0.8 2.1,0.8c0.8,0.4 1.6,0.5 2.5,0c11.8,-7.6 21.5,-18.4 31,-28.5c3.1,-3.3 -2.4,-8.5 -5.4,-5zm-66.1,7.5c1,-1.8 2.1,-3.5 3.3,-5.1c0.5,-0.7 1,-1.3 1.5,-2c-6.2,-0.5 -12.8,0.3 -18.9,0.5c-3.5,0.1 -2.9,5.2 0.4,5.4c4.4,0.3 9.1,1 13.7,1.2z" id="svg_18"/>
      <path stroke="null" d="m753.06471,-321.74012c-8.7,14.3 -17.9,28.4 -26.3,42.9c-2.4,-2.5 -5.5,-4.5 -7.9,-6.5c-3.4,-2.7 -6.9,-5.2 -10.6,-7.5c-1.7,-1.1 -3.3,0.1 -3.6,1.7c-13.8,17.1 -25.4,37.3 -35.6,56.7c-1.5,2.9 2.9,5.6 4.7,2.7c11.4,-18.1 23.8,-35.7 34.8,-54c2.3,2.1 4.7,4.1 7.1,6.1c2.9,2.4 5.6,5.9 8.9,7.8c1,1.4 3,2.2 4.1,0.6c10.8,-15.3 20.4,-31.4 30.6,-47.1c2.4,-3.7 -3.8,-7.3 -6.2,-3.4z" id="svg_19"/>
     </g>
     <g stroke="null" class="st1" id="svg_20">
      <path stroke="null" d="m855.86471,-308.84012c-0.1,-0.2 -0.3,-0.4 -0.5,-0.5c-0.1,-0.1 -0.2,-0.1 -0.3,-0.2c-0.5,-0.4 -1,-0.9 -1.5,-1.3s-1,-0.6 -1.5,-0.6c-7.4,-4.6 -15.5,-7.5 -23.6,-8.4l0,0.3c-1.3,-0.1 -2.7,0.6 -2.7,2.4c-0.5,14.7 0.3,29.4 0,44.1c-15.1,-0.5 -30.3,1 -45.3,0c-2.5,-0.2 -2.8,3.1 -1.5,4.5c1.1,9.1 5.6,17.6 14.7,24.3c20.3,15.1 46.6,14.6 63.1,-5.3c14.5,-17.2 16.1,-43.5 -0.9,-59.3zm-5.3,56.4c-13.9,15.4 -33.8,15.5 -50.9,4.9c-8.5,-5.2 -12.9,-12.5 -14.4,-20.3c13.8,-0.5 27.9,0.8 41.7,0.2c0.2,0 0.3,-0.1 0.4,-0.1c1.5,0.5 3.4,-0.2 3.4,-2.3l0,-0.5l0,-0.3c-0.5,-14.4 0.3,-28.8 0,-43.2c6.1,1.1 12.3,3.2 18.3,6.1c0.1,0.5 0.4,0.9 0.8,1.4c16.6,15 15.2,38 0.7,54.1z" id="svg_21"/>
      <path stroke="null" d="m778.96471,-278.24012c0.1,0 0.1,0 0,0c0.5,0.9 1.3,1.7 2.6,1.7c12.7,0.3 26.2,1.4 38.8,-0.1c1.5,-0.2 2.1,-1.1 2.2,-2.1c0.1,-0.3 0.2,-0.5 0.2,-0.8c0.4,-12.7 0.2,-25.5 -0.2,-38.2c-0.1,-2.4 -2.7,-3.1 -4.1,-2c-11.1,1.2 -21.6,6.6 -29.3,17.2c-4.8,6.7 -8.1,14 -9.6,21.3c-0.7,0.7 -0.9,1.9 -0.5,2.9c0,0 -0.1,0 -0.1,0.1zm16.9,-23.7c6.4,-7.6 13.8,-11.4 21.7,-12.6c-0.3,10.8 -0.4,21.6 -0.1,32.3c-10.3,-0.9 -21.1,-0.4 -31.6,0c1.6,-6.9 5,-13.8 10,-19.7z" id="svg_22"/>
     </g>
     <g stroke="null" class="st1" id="svg_23">
      <path stroke="null" d="m973.86471,-325.34012c0,-0.7 -0.3,-1.2 -0.6,-1.7c-0.4,-1.3 -1.6,-2.3 -3.4,-2c-2.4,0.4 -5.6,-0.1 -8.1,-0.1c-2.4,0 -4.8,-0.1 -7.1,0.2c-0.7,0.1 -1.1,0.4 -1.3,0.7c-1.2,0.2 -2.3,1 -2.3,2.7c-0.2,27.3 -0.9,54.6 -0.2,81.9c0.1,2.2 1.8,3.1 3.4,3c5.1,0 10.3,0.5 15.4,0.4c0.8,0 1.4,-0.3 1.9,-0.7c1,-0.1 1.9,-0.7 2,-2.1c2,-26.9 1.6,-55.3 0.3,-82.3zm-16.9,78.8c0.5,-25.6 0,-51.1 -0.2,-76.7c2,0.2 4.1,0.1 6.1,0.1c1.5,0 3.2,-0.2 4.9,-0.2c-1.1,25.1 -1.6,51.5 0.1,76.6c-3.7,-0.1 -7.3,0.1 -10.9,0.2zm-17.2,-54.8c-0.4,-1.3 -1.6,-2.3 -3.4,-2c-2.4,0.4 -5.6,-0.1 -8.1,-0.1c-2.4,0 -4.8,-0.1 -7.1,0.2c-0.7,0.1 -1.1,0.4 -1.3,0.7c-1.2,0.2 -2.3,1 -2.3,2.7c-0.1,17.4 -0.4,34.8 -0.4,52.2c-1.3,1.5 -0.5,4.5 1.6,5c6.3,1.3 13,1 19.4,0.8c2.8,-0.1 3.7,-2.5 3.1,-4.6l0.2,0c0.3,-17.9 -0.2,-35.9 -1,-53.4c-0.1,-0.6 -0.4,-1.1 -0.7,-1.5zm10.7,106.9c-3.2,-0.1 -6.5,0 -9.7,0.2c0,-16.2 -0.3,-32.4 -0.4,-48.6c2,0.2 4.1,0.1 6.1,0.1c1.5,0 3.2,-0.2 4.9,-0.2c-0.7,15.8 -1.1,32.2 -0.9,48.5zm-43.7,-79.6c0,-0.7 -0.3,-1.2 -0.6,-1.7c-0.4,-1.3 -1.6,-2.3 -3.4,-2c-2.4,0.4 -5.6,-0.1 -8.1,-0.1c-2.4,0 -4.8,-0.1 -7.1,0.2c-0.7,0.1 -1.1,0.4 -1.3,0.7c-1.2,0.2 -2.3,1 -2.3,2.7l-0.3,27.5c-0.7,1.6 0.2,4.1 2,4.4c6.4,1.1 13.5,0.5 20,0.5c3.2,0 3.7,-3.7 2,-5.6c-0.2,-8.9 -0.5,-17.8 -0.9,-26.6zm36.8,105.2c-3.3,-0.1 -6.7,-0.1 -10,0.1c-0.1,-7.9 -0.2,-15.7 -0.2,-23.6c2,0.2 4.1,0.1 6.1,0.1c1.5,0 3.2,-0.2 4.9,-0.2c-0.4,7.7 -0.7,15.6 -0.8,23.6z" id="svg_24"/>
     </g>
     <path stroke="null" class="st1" d="m1079.66471,-319.74012c0,-0.5 -0.1,-0.9 -0.3,-1.2c-0.2,-2.1 -3.2,-3.7 -4.6,-1.3c-6.5,11.2 -13.9,21.8 -18.7,33.9c-4.3,-3.5 -8,-7.8 -11.9,-11.7c-0.8,-1.5 -2.9,-2.4 -4,-0.8c-2.7,3.7 -5.9,7 -8.5,10.8c-2.2,3.1 -4.2,6.3 -6.1,9.6c-2.4,-0.8 -4.8,-1.9 -7.1,-2.7c-2.9,-0.9 -5.8,-1.8 -8.8,-2.2c-1.5,-0.2 -2.2,0.7 -2.3,1.8c-0.2,0.2 -0.5,0.4 -0.7,0.8c-5.5,10.4 -11.4,20.7 -17.8,30.7c-0.8,1.2 -0.2,2.4 0.7,3.1c0.4,0.8 1.1,1.4 2.2,1.4c27.8,0.6 55.7,0.4 83.5,0.3c0.6,0 1.1,-0.2 1.4,-0.5c1.3,0.1 2.6,-0.6 2.7,-2.4c1.1,-23.1 0.8,-46.4 0.3,-69.6zm-84.4,67c5.4,-8.7 10.7,-17.5 15.6,-26.5c2.1,0.7 4.3,1.1 6.4,1.7c2.7,0.7 6.2,1.2 8.8,2.4c0.9,0.4 1.7,0.4 2.3,0c0.5,-0.2 1,-0.6 1.4,-1.2c3.5,-6.3 7.4,-13.2 12.2,-18.7c4,4.6 8.7,8.2 13.4,12.2c0.4,0.5 1,0.9 1.6,1c1.7,0.4 3,-1.1 2.7,-2.8c4.8,-9 9.1,-18.4 14.5,-27.1c-0.3,19.6 -0.5,39.3 0.4,58.8c-26.6,-0.1 -53,-0.3 -79.3,0.2zm300.9,-71.5c-11.2,11.6 -23,22.7 -34.7,33.8c-10.8,-10.8 -21.7,-22.2 -34.1,-30.9c-5.6,-4 -11.7,4 -8.1,9.1c8.5,12.1 19.8,22.7 30.2,33.3c-9.7,9.3 -19.2,18.8 -28.2,28.8c-5.9,6.6 4,16 10.6,10.1c9.8,-8.8 19.2,-18.3 28.4,-27.8c9.7,10 19.9,19.9 31,28c5.8,4.3 12.4,-4.3 8.6,-9.6c-8,-11 -18,-20.9 -27.9,-30.5c11.2,-11.8 22.3,-23.6 34,-34.9c5.8,-5.5 -3.9,-15.4 -9.8,-9.4zm-172.9,143.8c-15.1,-21.8 -30,-44.6 -42.5,-68.1c-0.6,-1.9 -1.7,-3.5 -3.1,-4.7l-0.2,-0.2c-2.8,-2.2 -6.5,-2.5 -9,1.1c-16.8,24.4 -33.6,49.4 -52.4,72.3c-0.8,0.7 -1.3,1.6 -1.6,2.6c-1.9,5.2 4.1,11.2 8.7,8.7c30.1,2.8 61.4,2.1 91.6,1.4c3.1,-0.1 5,-1.6 6.1,-3.6c3.2,-1.6 5.1,-5.5 2.4,-9.5zm-216.5,-74.6c13.6,-17.2 27.2,-34.2 40,-52c10,17.2 20,34.4 30.5,51.3c-23.3,-0.5 -47.1,-0.8 -70.5,0.7zm603.2,-53.2c-0.1,-1 -0.5,-2.1 -1.3,-3c-1.1,-1.3 -2.3,-2.6 -3.5,-3.7c-2.4,-2.6 -5.4,-4.7 -8.8,-6.2c-16.8,-8.9 -38.8,-5.5 -52.8,8.4c-18.1,18 -17.2,48.3 2.4,65c18.4,15.7 48.1,11.9 61.1,-8.7c8.7,-13.8 11.1,-36.6 2.9,-51.8zm-624.9,101.4c-12.5,10.1 -30.6,6 -38.4,-7.7c-7.4,-12.9 -2.6,-29.3 9.2,-37.8c9.1,-6.6 19.3,-7.1 29.2,-4.6l0.3,0.3c17.2,8.1 12.9,39.1 -0.3,49.8zm747.5,-154.2c2.5,-4.7 -0.2,-11.9 -7.3,-12.6c-22,-2.1 -44.2,1.1 -66.2,1.9c-4.3,0.2 -5.9,3.5 -5.5,6.7c-1.1,1 -1.9,2.6 -1.9,4.7c-0.1,20.9 -4,43.1 -1.4,63.7c0.1,1 0.5,1.9 0.9,2.8c0.6,2.4 2.2,4.5 4.6,5c10.6,2.4 22,1.8 32.8,1.9c12,0.1 24.6,1.3 36.5,-0.2c3.5,-0.4 5.8,-3.1 6.7,-6.1c0.8,-1.2 1.4,-2.5 1.5,-4.3c1.4,-20.2 2.2,-43.1 -0.7,-63.5zm-767.9,164.1c-8.2,0.1 -16.4,-0.3 -24.6,0.3c1,-18.4 -1.6,-37.6 -1.8,-55.9c17.9,0.9 35.9,3 53.9,2.2c-1.8,17.3 -1.4,35.8 -0.5,53c-9,-0.4 -18,0.3 -27,0.4zm-657,-174.8c-6.5,-6.8 -13.3,-13.3 -19.9,-20c-6.4,-6.4 -14.1,-12.5 -20,-19.4c12.5,-14.2 26.6,-27.2 39.8,-40.7c2.2,-2.2 -1.6,-6.1 -3.9,-3.8c-13.6,13.3 -26.7,27.5 -41,40c-0.4,0.4 -0.7,0.8 -0.8,1.3c-1.8,1 -2.7,3.5 -0.5,5.2c7.7,6.1 14.1,14.2 21,21.2c7,7.1 14,14.2 21.1,21.1c3.2,3.2 7.2,-1.8 4.2,-4.9zm679.7,158.8c6.8,-6.5 13.3,-13.3 20,-19.9c6.4,-6.4 12.5,-14.1 19.4,-20c14.2,12.5 27.2,26.6 40.7,39.8c2.2,2.2 6.1,-1.6 3.8,-3.9c-13.3,-13.6 -27.5,-26.7 -40,-41c-0.4,-0.4 -0.8,-0.7 -1.3,-0.8c-1,-1.8 -3.5,-2.7 -5.2,-0.5c-6.1,7.7 -14.2,14.1 -21.2,21c-7.1,7 -14.2,14 -21.1,21.1c-3.2,3.2 1.7,7.2 4.9,4.2zm-484,-205.5c-6.8,6.5 -13.3,13.3 -20,19.9c-6.4,6.4 -12.5,14.1 -19.4,20c-14.2,-12.5 -27.2,-26.6 -40.7,-39.8c-2.2,-2.2 -6.1,1.6 -3.8,3.9c13.3,13.6 27.5,26.7 40,41c0.4,0.4 0.8,0.7 1.3,0.8c1,1.8 3.5,2.7 5.2,0.5c6.1,-7.7 14.2,-14.1 21.2,-21c7.1,-7 14.2,-14 21.1,-21.1c3.2,-3.1 -1.8,-7.2 -4.9,-4.2zm517.9,189.5c6.5,6.8 13.3,13.3 19.9,20c6.4,6.4 14.1,12.5 20,19.4c-12.5,14.2 -26.6,27.2 -39.8,40.7c-2.2,2.2 1.6,6.1 3.9,3.8c13.6,-13.3 26.7,-27.5 41,-40c0.4,-0.4 0.7,-0.8 0.8,-1.3c1.8,-1 2.7,-3.5 0.5,-5.2c-7.7,-6.1 -14.1,-14.2 -21,-21.2c-7,-7.1 -14,-14.2 -21.1,-21.1c-3.1,-3.1 -7.2,1.8 -4.2,4.9zm-364.2,-166c0.2,-3.4 -3.5,-4.7 -5.2,-3.2c-10.4,-0.2 -21.1,0.5 -31.6,-0.1c0.3,-7.5 -0.6,-15.3 0.6,-22.7c0.1,-0.8 0,-1.4 -0.2,-1.9c-0.3,-1 -1.3,-1.9 -2.4,-1.8c-1.8,-0.4 -3.8,0.5 -3.5,2.9l0,0.1c-6,6.4 -12.8,12.3 -19.1,18.4c-7.8,7.5 -15.1,15.7 -23.4,22.7c-2.6,2.1 -0.6,5.7 1.7,6c14.1,12.1 25.5,27.5 39.8,39.5c1.3,2.7 7.2,2.4 5.8,-2.1c-1.2,-3.7 -0.5,-8.6 -0.5,-12.5c0,-2.7 0.1,-5.3 0.2,-8c11.2,-0.4 22.5,0.4 33.8,0.1c1.5,0 2.3,-0.9 2.6,-1.9c0.5,-0.4 0.9,-1 0.9,-2c-0.4,-11 -0.3,-22.6 0.5,-33.5zm266.2,229c-3.2,-0.2 -3.4,3.9 -1.6,5.6c0.1,2.9 0.2,5.7 0.2,8.6c0,2.3 0.2,4.9 0.1,7.4c-11.3,-12.5 -24.8,-23 -35.9,-35.7c6.2,-7.1 13.2,-13.6 19.7,-20.3c5.8,-5.9 11.2,-12.2 17.1,-18.1c0.3,5.9 -0.2,12 0.1,17.8c0,0.1 0.1,0.2 0.1,0.3c-2.9,0.8 -2.2,6.5 1.3,6.2c11.3,-1.1 22.9,-0.2 34.3,-0.3c0.6,9.4 0.7,19.2 0.4,28.6c-11.8,-0.4 -23.9,0.5 -35.8,-0.1zm-146.8,-288.1c-3.4,-0.2 -4.7,3.5 -3.2,5.2c-0.2,10.4 0.5,21.1 -0.1,31.6c-7.5,-0.3 -15.3,0.6 -22.7,-0.6c-0.8,-0.1 -1.4,0 -1.9,0.2c-1,0.3 -1.9,1.3 -1.8,2.4c-0.4,1.8 0.5,3.8 2.9,3.5l0.1,0c6.4,6 12.3,12.8 18.4,19.1c7.5,7.8 15.7,15.1 22.7,23.4c2.1,2.6 5.7,0.6 6,-1.7c12.1,-14.1 27.5,-25.5 39.5,-39.8c2.7,-1.3 2.4,-7.2 -2.1,-5.8c-3.7,1.2 -8.6,0.5 -12.5,0.5c-2.7,0 -5.3,-0.1 -8,-0.2c-0.4,-11.2 0.4,-22.5 0.1,-33.8c0,-1.5 -0.9,-2.3 -1.9,-2.6c-0.4,-0.5 -1,-0.9 -2,-0.9c-11,0.4 -22.6,0.2 -33.5,-0.5zm177.8,329.5c-0.2,3.2 3.9,3.4 5.6,1.6c2.9,-0.1 5.7,-0.2 8.6,-0.2c2.3,0 4.9,-0.2 7.4,-0.1c-12.5,11.3 -23,24.8 -35.7,35.9c-7.1,-6.2 -13.6,-13.2 -20.3,-19.7c-5.9,-5.8 -12.2,-11.2 -18.1,-17.1c5.9,-0.3 12,0.2 17.8,-0.1c0.1,0 0.2,-0.1 0.3,-0.1c0.8,2.9 6.5,2.2 6.2,-1.3c-1.1,-11.3 -0.2,-22.9 -0.3,-34.3c9.4,-0.6 19.2,-0.7 28.6,-0.4c-0.4,11.8 0.5,23.8 -0.1,35.8zm-36.7,-243.5c3.4,0.2 4.7,-3.5 3.2,-5.2c0.2,-10.4 -0.5,-21.1 0.1,-31.6c7.5,0.3 15.3,-0.6 22.7,0.6c0.8,0.1 1.4,0 1.9,-0.2c1,-0.3 1.9,-1.3 1.8,-2.4c0.4,-1.8 -0.5,-3.8 -2.9,-3.5l-0.1,0c-6.4,-6 -12.3,-12.8 -18.4,-19.1c-7.5,-7.8 -15.7,-15.1 -22.7,-23.4c-2.1,-2.6 -5.7,-0.6 -6,1.7c-12.1,14.1 -27.5,25.5 -39.5,39.8c-2.7,1.3 -2.4,7.2 2.1,5.8c3.7,-1.2 8.6,-0.5 12.5,-0.5c2.7,0 5.3,0.1 8,0.2c0.4,11.2 -0.4,22.5 -0.1,33.8c0,1.5 0.9,2.3 1.9,2.6c0.4,0.5 1,0.9 2,0.9c11,-0.5 22.7,-0.3 33.5,0.5zm5.8,202c0.2,-3.2 -3.9,-3.4 -5.6,-1.6c-2.9,0.1 -5.7,0.2 -8.6,0.2c-2.3,0 -4.9,0.2 -7.4,0.1c12.5,-11.3 23,-24.8 35.7,-35.9c7.1,6.2 13.6,13.2 20.3,19.7c5.9,5.8 12.2,11.2 18.1,17.1c-5.9,0.3 -12,-0.2 -17.8,0.1c-0.1,0 -0.2,0.1 -0.3,0.1c-0.8,-2.9 -6.5,-2.2 -6.2,1.3c1.1,11.3 0.2,22.9 0.3,34.3c-9.4,0.6 -19.2,0.7 -28.6,0.4c0.3,-11.7 -0.6,-23.8 0.1,-35.8zm42.4,-229.2c-0.2,3.4 3.5,4.7 5.2,3.2c10.4,0.2 21.1,-0.5 31.6,0.1c-0.3,7.5 0.6,15.3 -0.6,22.7c-0.1,0.8 0,1.4 0.2,1.9c0.3,1 1.3,1.9 2.4,1.8c1.8,0.4 3.8,-0.5 3.5,-2.9l0,-0.1c6,-6.4 12.8,-12.3 19.1,-18.4c7.8,-7.5 15.1,-15.7 23.4,-22.7c2.6,-2.1 0.6,-5.7 -1.7,-6c-14.1,-12.1 -25.5,-27.5 -39.8,-39.5c-1.3,-2.7 -7.2,-2.4 -5.8,2.1c1.2,3.7 0.5,8.6 0.5,12.5c0,2.7 -0.1,5.3 -0.2,8c-11.2,0.4 -22.5,-0.4 -33.8,-0.1c-1.5,0 -2.3,0.9 -2.6,1.9c-0.5,0.4 -0.9,1 -0.9,2c0.4,11 0.3,22.6 -0.5,33.5zm-1,198.2c3.2,0.2 3.4,-3.9 1.6,-5.6c-0.1,-2.9 -0.2,-5.7 -0.2,-8.6c0,-2.3 -0.2,-4.9 -0.1,-7.4c11.3,12.5 24.8,23 35.9,35.7c-6.2,7.1 -13.2,13.6 -19.7,20.3c-5.8,5.9 -11.2,12.2 -17.1,18.1c-0.3,-5.9 0.2,-12 -0.1,-17.8c0,-0.1 -0.1,-0.2 -0.1,-0.3c2.9,-0.8 2.2,-6.5 -1.3,-6.2c-11.3,1.1 -22.9,0.2 -34.3,0.3c-0.6,-9.4 -0.7,-19.2 -0.4,-28.6c11.8,0.4 23.9,-0.5 35.8,0.1z" id="svg_25"/>
     <g stroke="null" class="st1" id="svg_26">
      <path stroke="null" d="m532.36471,-246.64012c-14.2,-23.4 -28,-47.2 -43.3,-69.9l-0.1,-0.1c-0.8,-1.7 -3,-2.7 -4.4,-0.9c-16.7,23 -33.1,46.9 -46.4,72.1c-1,1.8 0.9,3.5 2.5,3.1c0.1,0 0.3,0.1 0.4,0.1c13.2,1.6 27,0.8 40.3,0.8c14.9,-0.1 30,0.5 44.9,-0.3c1.2,-0.1 2,-0.8 2.2,-1.6c2.1,1.8 5.5,-0.7 3.9,-3.3zm-6.2,-0.3c-14.2,-0.8 -28.4,-0.2 -42.6,-0.3c-12.9,-0.1 -26.2,-0.8 -39.1,0.4c13.9,-21.8 27.6,-43.6 42.8,-64.6c12.3,21.9 25.9,43.2 39.1,64.5l-0.2,0z" id="svg_27"/>
      <path stroke="null" d="m486.56471,-260.24012c-0.9,-0.2 -1.9,-0.3 -2.8,-0.4c-1,0 -2.1,0.4 -3,0.3c-1.1,-0.1 -1.7,0.6 -1.9,1.5c-0.9,1.5 0.2,4.1 2.3,4.1c1.7,0 3.3,-0.5 5,-0.5c3,0 3.1,-4.2 0.4,-5zm-3.1,-32.2c-0.1,0.1 -0.3,0.1 -0.4,0.2c-0.7,-0.1 -1.5,0.2 -1.7,1.2c-1.4,6 -1.6,12.6 -1.7,18.7c0,3.2 1.2,6.6 5.1,6.5c3.6,-0.2 5.1,-3.9 4.9,-7c-0.3,-5.9 -0.7,-11.5 -0.2,-17.5c0.1,-1.4 -1.6,-3 -3,-2.8c-1.2,0.1 -1.8,0.2 -3,0.7z" id="svg_28"/>
     </g>
     <g stroke="null" class="st1" id="svg_29">
      <path stroke="null" d="m1667.36471,-422.34012c-0.1,-0.9 -0.6,-1.5 -1.3,-2c-0.5,-1 -1.5,-1.7 -2.9,-1.7c-3.9,0 -7.8,-0.1 -11.8,-0.2c-0.3,-13.2 -2.4,-27.8 -16.8,-26.3c-11.4,1.2 -14.8,14 -15.4,26.3c-4.5,0.2 -8.9,0.5 -13.3,1.1c-0.2,0 -0.4,0.1 -0.6,0.2c-1,0.2 -1.8,0.9 -1.9,2.3c-0.5,15.5 -1.7,31.2 -0.6,46.7c0.1,1.2 0.7,2 1.4,2.4c0.3,0.4 0.7,0.8 1.2,1c19.1,7.9 40.8,6.9 60.3,1.1c2.5,-0.7 2.9,-3.3 1.9,-5.1c1.9,-14.9 0.7,-31 -0.2,-45.8zm-34.6,-22.1c8.7,-5.3 12,6.7 13.3,18.1c-6.5,-0.1 -13,-0.2 -19.5,-0.1c0.4,-6 1.2,-14.9 6.2,-18zm29.3,66.7c-18.1,5 -34.9,4.3 -53.2,0.9c1,-14.3 0,-28.8 -0.5,-43c17.7,2 36.3,0.9 54.1,0.7c-1,13.5 -1.9,28 -0.4,41.4z" id="svg_30"/>
      <path stroke="null" d="m1639.46471,-406.94012c-2.4,-2.5 -6.7,-2.2 -8.5,0.8c-0.1,0.1 -0.1,0.2 -0.2,0.3c-0.4,0.7 -0.6,1.6 -0.6,2.5c0,0.5 0.1,1 0.2,1.5c0,0.1 0.1,0.1 0.1,0.2c0.1,0.4 0.3,0.7 0.4,1c0,0.1 0.1,0.2 0.2,0.2l0.6,0.9l0.1,0.1c0.4,0.4 0.8,0.7 1.2,1l0,0.3c-0.3,0.5 -0.5,1 -0.7,1.4c-0.4,1.2 -0.8,2.5 -1.1,3.7c-0.4,1.6 1,3.1 2.6,3.2c1.5,0.1 3.1,0.3 4.6,0.4c1.7,0.1 3,-1.9 2.3,-3.4c-0.8,-1.8 -1.5,-3.7 -2.4,-5.6c2.8,-1.6 3.7,-5.9 1.2,-8.5z" id="svg_31"/>
     </g>
     <g stroke="null" class="st1" id="svg_32">
      <path stroke="null" d="m1755.36471,-422.34012c-0.1,-0.9 -0.6,-1.5 -1.3,-2c-0.5,-1 -1.5,-1.7 -2.9,-1.7c-3.9,0 -7.8,-0.1 -11.7,-0.2c0.1,-14.4 0.5,-35.7 -16.9,-34c-9.5,1 -13.4,9.9 -14.8,20c2.5,-0.4 4.9,-0.3 7.4,0.2c0.7,-4.9 2.1,-9.9 5.6,-12.1c10.7,-6.5 13.3,13.2 13.9,25.7c-13.7,-0.3 -27.5,-0.5 -40.8,1.2c-0.2,0 -0.4,0.1 -0.6,0.2c-1,0.2 -1.8,0.9 -1.9,2.3c-0.5,15.5 -1.7,31.2 -0.6,46.7c0.1,1.2 0.7,2 1.4,2.4c0.3,0.4 0.7,0.8 1.2,1c19.1,7.9 40.8,6.9 60.3,1.1c2.5,-0.7 2.9,-3.3 1.9,-5.1c1.9,-14.8 0.7,-30.9 -0.2,-45.7zm-5.3,44.6c-18.1,5 -34.9,4.3 -53.2,0.9c1,-14.3 0,-28.8 -0.5,-43c17.7,2 36.3,0.9 54.1,0.7c-1,13.5 -1.9,28 -0.4,41.4z" id="svg_33"/>
      <path stroke="null" d="m1727.46471,-406.94012c-2.4,-2.5 -6.7,-2.2 -8.5,0.8c-0.1,0.1 -0.1,0.2 -0.2,0.3c-0.4,0.7 -0.6,1.6 -0.6,2.5c0,0.5 0.1,1 0.2,1.5c0,0.1 0.1,0.1 0.1,0.2c0.1,0.4 0.3,0.7 0.4,1c0,0.1 0.1,0.2 0.2,0.2l0.6,0.9l0.1,0.1c0.4,0.4 0.8,0.7 1.2,1l0,0.3c-0.3,0.5 -0.5,1 -0.7,1.4c-0.4,1.2 -0.8,2.5 -1.1,3.7c-0.4,1.6 1,3.1 2.6,3.2c1.5,0.1 3.1,0.3 4.6,0.4c1.7,0.1 3,-1.9 2.3,-3.4c-0.8,-1.8 -1.5,-3.7 -2.4,-5.6c2.8,-1.6 3.7,-5.9 1.2,-8.5z" id="svg_34"/>
     </g>
     <g stroke="null" class="st1" id="svg_35">
      <path stroke="null" d="m1938.96471,-446.14012c-0.7,-1.1 -2.1,-1.4 -3.2,-1c-20.6,-22.6 -56.1,4.9 -43.5,30.5c-7.3,12.9 -15.7,25.1 -22.8,38.2c-0.4,0.8 -0.3,1.5 0,2.2c-0.2,0.8 0.1,1.7 0.6,2.5c0.4,3.5 0.9,7.1 0.9,10.6c0,1 0.5,1.7 1.2,2c0.8,1.3 2.3,2.1 3.8,0.5c0.5,-0.5 1.7,-0.5 2.5,-0.6c1.1,-0.2 2.2,-0.5 3.3,-0.7c2,-0.5 4.1,-0.8 6,-1.5c0.1,0 0.1,-0.1 0.2,-0.1c0.7,0.1 1.3,-0.2 1.8,-0.9c2.6,-3.7 3.7,-6.9 2.5,-10.7c0.4,-0.1 0.9,-0.3 1.5,-0.5c0.8,-0.3 3.5,-3.2 4.2,-3.1c0.9,0.1 1.8,-0.7 1.9,-1.6c0.2,-1.8 0.3,-3.5 0.5,-5.3c2,-0.4 2.9,-1.7 3.9,-4c2.1,-4.7 3.8,-7.9 7,-11.2c7.6,2 15.9,0.8 22.4,-4.8c11.7,-10.1 13.4,-27.8 5.3,-40.5zm-4.9,29.5c-4.7,8 -13.2,11 -21.2,9.3c-1,-0.7 -2.3,-0.8 -3.4,0.2c-2.3,2.2 -4.7,4.4 -6.5,7.1c-0.9,1.4 -3.9,9.8 -5,9.9c-0.9,0 -1.9,0.7 -2,1.7c-0.1,1.8 -0.2,3.7 -0.3,5.5c-2.4,0.9 -3.2,3.9 -6.6,3.9c-1.6,0 -2.3,1.8 -1.4,3.1c-0.5,2.4 -1,4.8 -1.4,7.3c-0.1,0.1 -0.3,0.2 -0.4,0.2c-1.9,0.2 -3.7,0.7 -5.5,1.2l-2.7,0.9c-0.4,0.2 -1.5,0.8 -2.4,1.1c-0.2,-1.3 -0.4,-2.7 -0.5,-4l-0.3,-2.4c-0.1,-0.5 -0.6,-2 -0.4,-2.5c0.4,-0.8 0.3,-1.6 -0.1,-2.4c6.7,-13.4 14.3,-28 23.8,-39.4c1,-1.2 0.7,-2.5 -0.1,-3.4c-3.9,-8.4 -1.9,-18.6 5.2,-25.1c9.7,-8.8 22.7,-6.3 31.8,1.8l0.1,0.1c3.6,8.5 4.1,17.7 -0.7,25.9z" id="svg_36"/>
      <path stroke="null" d="m1930.56471,-441.44012c-0.7,-0.3 -1.4,-1.4 -2,-2c-0.9,-0.7 -2,-1.3 -3.1,-1.7c-2.2,-0.7 -4.4,-0.6 -6.5,0.3c-4.6,2 -6.1,7.3 -4,11.8c2,4.1 6.7,6.4 11.1,5.2c5.1,-1.4 7.6,-6.5 5.9,-11.4c0,-0.9 -0.5,-1.8 -1.4,-2.2zm-11.8,6.4c-1,-2.4 0.5,-4.9 3,-5.5c1.9,-0.5 3.8,0.4 5.1,1.7c0.1,0.6 0.3,1.1 0.7,1.5c0.3,4.8 -6.8,7.3 -8.8,2.3z" id="svg_37"/>
     </g>
     <g stroke="null" class="st1" id="svg_38">
      <path stroke="null" d="m256.36471,-317.14012c-13.1,-0.5 -26.3,0 -39.5,0c-10.8,0 -21.9,-0.8 -32.6,0.6c0.1,-0.9 0,-1.9 0.1,-2.8c0.1,-1.6 0.3,-3.1 -0.5,-4.5c-0.2,-0.9 -0.8,-1.6 -1.7,-1.8c-2.9,-0.6 -5.8,-0.7 -8.8,-0.7c-3,0.1 -6,-0.3 -8.9,0.2c-2.9,0.5 -2.4,5.1 0.3,5.6c2.9,0.6 6,0.1 8.9,0.2c1.9,0 3.8,-0.1 5.6,-0.3c0,0.3 0,0.6 0.1,0.9c0,0.9 0,1.8 0.1,2.8c-0.5,0.5 -0.8,1.2 -0.4,2.1c6.6,17 10.9,35 16.1,52.5c0.2,0.6 0.5,1 0.8,1.4c0.3,0.6 0.8,1.1 1.4,1.2c15.9,2.5 34,1.2 50.1,0.9c3.9,-0.1 3.6,-6 -0.3,-6.1c-15.1,-0.3 -31.7,-1.3 -46.8,0.5c-0.2,-0.7 -0.4,-1.4 -0.6,-2c16.2,-7.3 33.2,-12.4 50.7,-15.5c0.5,0 1,-0.1 1.4,-0.3c1.6,-0.4 2.1,-1.8 1.8,-3.1c2.8,-9.1 3.7,-18.3 5.4,-27.6c0.2,-0.4 0.3,-0.9 0.2,-1.3c0.2,-2 -1.5,-3.1 -2.9,-2.9zm-7.6,29c-17.7,3.2 -34.4,8.9 -50.4,17c-4.3,-13.8 -9.6,-27.4 -14,-41.1c10.8,1.5 22.1,0.6 32.9,0.6c12.4,0 24.9,0.4 37.3,0c-1.3,7.9 -3.7,15.8 -5.8,23.5zm-41.4,34.3c-2.1,-3.6 -8.3,-3.6 -11.2,-0.9c-3.4,3.1 -2,7.9 1.4,10.2c3.6,2.5 8.8,1.5 10.6,-2.7c0.8,-1.9 0.4,-4.1 -0.7,-5.7c0.1,-0.4 0,-0.7 -0.1,-0.9zm37.1,-29.2c-1.1,1.1 -3.1,0.7 -4,-0.6c-1.2,-1.5 0.7,-3 2.1,-3.2c0.3,0.5 0.7,0.9 1.3,1.1c1.4,0.4 1.6,1.7 0.6,2.7zm3.6,29.2c-2.1,-3.6 -8.3,-3.6 -11.2,-0.9c-3.4,3.1 -2,7.9 1.4,10.2c3.6,2.5 8.8,1.5 10.6,-2.7c0.8,-1.9 0.4,-4.1 -0.7,-5.7c0.1,-0.4 0,-0.7 -0.1,-0.9zm-7.9,-24.1c-1.1,1.1 -3.1,0.7 -4,-0.6c-1.2,-1.5 0.7,-3 2.1,-3.2c0.3,0.5 0.7,0.9 1.3,1.1c1.4,0.4 1.6,1.7 0.6,2.7z" id="svg_39"/>
     </g>
     <g stroke="null" class="st1" id="svg_40">
      <path stroke="null" d="m352.76471,-296.14012c-2.5,-2.8 -5.1,-5.5 -7.7,-8.3c-0.1,0 -0.1,0.1 -0.1,0.1c-0.6,-1.6 -2.9,-2.7 -4.4,-1c-3.9,4.3 -10,3.7 -13.2,-1.1c-2.6,-3.9 -1.8,-9.3 0.6,-13.1c0.3,-0.4 0.3,-0.9 0.2,-1.2l0.1,-0.1l-0.1,-0.1c-0.2,-0.5 -0.6,-0.9 -1.2,-1.1c-2.4,-2.2 -4.8,-4.5 -7.2,-6.6c-1.2,-1.1 -2.7,-0.4 -3.1,0.7c-0.2,0.1 -0.4,0.2 -0.5,0.3c-18.4,17 -35.9,35.4 -53.2,53.5c-0.2,0.2 -0.4,0.5 -0.4,0.7c-0.4,0.5 -0.5,1.2 0.1,1.9c2.5,3.1 5.2,6.1 8,9.1l0.1,-0.1c0.9,0.7 2.4,0.9 3.1,-0.4c2.9,-5.2 9.2,-2.6 11.9,1.2c2.1,2.9 4.7,9.9 1.6,12.9c-1.3,1.2 -0.6,2.9 0.7,3.6c2.5,2.2 4.9,4.5 7.4,6.6c0.1,0 0.1,0.1 0.2,0.1c0.7,0.9 2.2,1.3 3.3,0.4c9.3,-8.3 18.1,-17.3 26.8,-26.2c8.7,-8.9 18.3,-17.2 26.4,-26.6c0.5,-0.6 0.7,-1.2 0.6,-1.8c0.7,-0.7 1.1,-2.2 0,-3.4zm-31.1,28.3c-8.4,8.2 -16.8,16.5 -24.7,25.2c-1.5,-1.7 -3.1,-3.5 -4.7,-5.2c2.8,-5.9 -0.6,-14.4 -5,-18.7c-4.3,-4.2 -10.8,-5 -14.9,-1.2c-1.8,-1.6 -3.7,-3.3 -5.5,-4.8c17.5,-16.8 35.3,-33.7 51.7,-51.5c1.5,1.6 2.9,3.2 4.4,4.8c-3.3,5.9 -3.4,13 1.9,18.2c4.8,4.6 11.9,5.1 17.1,1.4c2,1.9 4,3.8 6,5.6c-9.2,8 -17.5,17.6 -26.3,26.2z" id="svg_41"/>
      <path stroke="null" d="m332.56471,-288.64012c-6.4,-6.8 -13,-13.5 -19.7,-20.1c-1.1,-1.1 -2.5,-0.7 -3.2,0.2c-0.2,0 -0.4,0.1 -0.5,0.2c-10.3,7.3 -19.4,18.6 -27.9,27.9c-0.6,0.7 -0.6,1.5 -0.3,2.1c0.1,0.2 0.3,0.5 0.6,0.7c7.4,6.2 12.8,15 20.7,20.6c0.2,0.2 0.5,0.3 0.8,0.3c0.6,0.3 1.3,0.3 1.8,-0.1c5.1,-3.6 9.1,-8.4 13.5,-12.7c5,-4.9 10.3,-9.7 14.7,-15.1c0.9,-1.1 0.6,-2.2 -0.1,-2.9c0.1,-0.3 0,-0.7 -0.4,-1.1zm-17.7,15.8c-3.8,3.9 -7.8,7.4 -11.2,11.6c-5.3,-6.5 -12.5,-11.4 -18.1,-17.7c8.7,-7.8 18.6,-16.2 25.6,-25.4c5.9,5.9 11.8,11.9 17.9,17.6c-5.1,4.2 -9.6,9.2 -14.2,13.9z" id="svg_42"/>
     </g>
    </g>
    <g stroke="null" class="st0" id="svg_43">
     <path stroke="null" class="st1" d="m190.66471,-929.04012c-7.7,-8.5 -19.2,-7.6 -29.7,-7.4c-12.8,0.3 -28.1,-1.4 -40.6,1.5c-8.9,2.1 -10.8,7.3 -11.8,15.8c-1.1,9.7 -4,25 0.5,34.1c4.9,9.8 14.6,8.7 23.7,7.5c0.1,2.8 0.2,5.6 1.3,8.5c1.3,3.6 3.6,6.9 6.4,9.5c5.8,5.2 14.1,7.3 21.7,5.2c0.4,0.2 0.8,0.4 1.2,0.5c3,1.1 3.6,-3.3 1.5,-4.7c-0.2,-0.1 -0.3,-0.2 -0.5,-0.3c-0.3,-0.4 -0.7,-0.7 -1.2,-0.8c-2.1,-1.5 -3.9,-3 -5.1,-5.5c-1.1,-2.4 -1.8,-6.7 -0.5,-9.5c10.4,-0.3 22.8,4.1 31.8,-2.9c7.2,-5.5 7.7,-15.5 8.2,-23.9c0.6,-9.7 0,-20 -6.9,-27.6zm-14.7,49.4c-5.8,0.9 -13.9,-1.6 -20,-1.2c-2.2,0.1 -3,2 -2.7,3.7c-0.5,2.1 -1.2,4 -1.2,6.2c0,2.6 0.6,5.3 1.6,7.7c0.7,1.5 1.5,3 2.6,4.3c-4.2,0.2 -8.3,-0.8 -12,-3.4c-4.6,-3.3 -9.4,-11.8 -6.6,-17.5c1.7,-3.6 -3.3,-5.2 -4.8,-3.2c-11.4,3.3 -18.2,-2.5 -19.7,-15.5c-0.6,-5 -0.4,-19.2 1.6,-23.4c5.3,-11.4 31.9,-7.1 41.4,-7.3c8.5,-0.2 21.9,-2.2 28.7,4c5.1,4.7 6,12.9 6,19.3c0,10.4 -0.6,24.1 -14.9,26.3z" id="svg_44"/>
     <g stroke="null" class="st1" id="svg_45">
      <path stroke="null" d="m304.76471,-927.44012c-6.1,-6.8 -15.2,-6.1 -23.6,-5.9c-10.2,0.2 -22.4,-1.1 -32.3,1.2c-7.1,1.7 -8.6,5.8 -9.4,12.6c-0.9,7.7 -3.2,19.8 0.4,27.1c3.9,7.8 11.6,6.9 18.8,6c0.1,2.3 0.2,4.4 1,6.7c1.1,2.9 2.8,5.5 5.1,7.5c4.6,4.2 11.2,5.8 17.2,4.2c0.3,0.1 0.6,0.3 1,0.4c2.4,0.8 2.9,-2.6 1.2,-3.8c-0.1,-0.1 -0.2,-0.2 -0.4,-0.2c-0.3,-0.3 -0.6,-0.5 -1,-0.7c-1.7,-1.2 -3.1,-2.4 -4,-4.4c-0.9,-1.9 -1.4,-5.3 -0.4,-7.5c8.3,-0.2 18.1,3.3 25.3,-2.3c5.7,-4.4 6.1,-12.4 6.5,-19c0.6,-7.7 0.1,-15.9 -5.4,-21.9zm-11.6,39.3c-4.7,0.7 -11.1,-1.3 -15.9,-1c-1.7,0.1 -2.4,1.6 -2.1,2.9c-0.4,1.6 -0.9,3.2 -1,4.9c0,2.1 0.5,4.2 1.3,6.2c0.5,1.2 1.2,2.4 2.1,3.4c-3.4,0.1 -6.6,-0.6 -9.5,-2.7c-3.6,-2.6 -7.4,-9.4 -5.3,-13.9c1.4,-2.8 -2.6,-4.2 -3.8,-2.6c-9.1,2.6 -14.5,-2 -15.6,-12.3c-0.5,-4 -0.3,-15.3 1.2,-18.6c4.2,-9.1 25.4,-5.7 32.9,-5.8c6.7,-0.1 17.4,-1.7 22.8,3.2c4.1,3.7 4.7,10.3 4.8,15.4c-0.1,8.2 -0.5,19.1 -11.9,20.9z" id="svg_46"/>
      <path stroke="null" d="m261.66471,-868.14012c-3.5,0.2 -6.9,0.4 -10.3,0.3c-2,0 -2.3,2.1 -1.6,3.5c-1.2,2.3 -2.3,4.5 -4.4,6.5c-1.2,1.1 -2.5,2 -3.9,2.7l-0.6,0.3c0.6,-1.3 0.9,-2.7 1,-4.1c0,-0.8 0,-1.6 -0.2,-2.4c-0.2,-1 -1.2,-3.1 -1.1,-4.1c0,-1.3 -1.3,-2.3 -2.5,-2.2c-0.6,-0.5 -1.3,-0.7 -2.2,-0.4c-6.5,2.1 -11,1.6 -12.5,-6.1c-0.5,-2.6 0.1,-6 0.2,-8.7c0.3,-7 4.1,-9.8 9.1,-11.1c0,-0.2 -0.1,-0.5 -0.1,-0.7l0,-1.2c-0.2,-1.1 -0.4,-2.1 -0.4,-3.2c-2.1,0.3 -4.1,0.8 -5.9,1.6c-9.1,3.7 -8.1,16.3 -7.6,24.5c0.7,11.2 9.6,12.7 18.9,9.8c0.1,0 0.2,-0.1 0.3,-0.1c1.7,1.4 0.2,6.5 -0.6,7.9c-0.5,0.8 -1.1,1.4 -1.8,1.9c-1.4,-0.4 -2.1,0.4 -2.3,1.4c-0.5,0.3 -1,0.5 -1.5,0.8c-1.3,0.8 -0.4,2.9 1,2.9c1.1,0 2.1,-0.3 3,-0.8c0.2,-0.1 0.4,-0.2 0.7,-0.3c1,-0.6 3.1,-0.6 4.3,-1c0.9,-0.3 1.9,-0.7 2.8,-1.1c2,-0.9 3.7,-2.2 5.3,-3.6c2.3,-2.1 4.4,-5 5.2,-8.2c3.4,-0.1 6.8,0 10.3,0c1.4,0 2.1,-1.1 2.2,-2.4c0,-0.4 0.1,-0.8 0.1,-1.1c-1.5,-1.1 -3,-2.3 -4.3,-3.6c-0.4,0.7 -0.5,1.5 -0.6,2.3z" id="svg_47"/>
     </g>
     <g stroke="null" class="st1" id="svg_48">
      <path stroke="null" d="m422.46471,-913.34012c-3.2,-8.5 -17.2,-5.8 -25.5,-5.4c-1.6,-3.9 0.9,-8.8 -5.2,-9.7c-3.7,-0.6 -8.1,0.6 -11.8,1c-5.1,0.5 -10.1,1 -15.2,1.5c-0.8,0.1 -1.6,0.4 -1.9,1.2c-1.1,2.6 -1.9,5.3 -3.1,7.9c-8,-0.2 -15.8,0.2 -23.9,1.4c-0.9,0.1 -1.6,1.1 -1.8,1.9c-1.8,12.5 -2.6,25.3 -1.1,37.9c0.7,5.9 1.5,9.9 7.4,12.1c9.9,3.7 24.6,0.8 34.8,0.1c14.9,-1 29.7,-1.8 44.6,-1.5c1.2,0 2.5,-1 2.6,-2.2c0.9,-7.7 1.4,-15.3 1.3,-23.1c0.1,-6.5 1.2,-16.8 -1.2,-23.1zm-4.4,30.7c-0.3,13.3 -4.2,10.9 -15.8,11.2c-7.5,0.2 -14.9,0.8 -22.3,1.4c-11.4,0.9 -36.6,7.3 -41.4,-5.5c-2.1,-5.5 -1.9,-21.1 -0.3,-26.6c0.2,-1.7 0.3,-3.3 0.5,-5c3.2,-3 6.8,-4.5 10.8,-4.4c4,-0.7 8.7,-0.2 12.7,0c1.9,0.1 2.5,-1.5 2.1,-3c1.2,-4.8 2.1,-6.6 7,-7c3.8,-0.3 7.6,-0.6 11.4,-1c3.4,-0.3 7.7,-2.1 8.8,2c0.4,1.5 0.3,2.4 0.7,3.6c-0.7,1.9 0.4,4.6 2.9,4.6c8.6,0 18.9,-2.3 22.1,7.2c2.2,6.3 1,16.1 0.8,22.5z" id="svg_49"/>
      <path stroke="null" d="m389.86471,-907.54012c-0.4,-0.2 -0.7,-0.2 -1,-0.2c-18.2,-14.8 -43.1,18 -21.4,30.2c9.3,5.2 21.8,3.3 28.1,-5.6c5.9,-8.2 3.5,-19.8 -5.7,-24.4zm-17.5,25.3c-9.1,-3 -9.1,-13.2 -3.3,-19.4c5.4,-5.7 12.6,-5 19.2,-2.3c11.8,11.2 -2.4,26.2 -15.9,21.7zm37.8,-23.4c-1.3,-1 -3,-1.2 -4.2,0.1l-0.1,0.1c-1.9,1.9 -0.1,5.3 2.5,5.3c2.7,0 3.9,-3.7 1.8,-5.5c0,0.1 0,0 0,0z" id="svg_50"/>
      <path stroke="null" d="m376.16471,-901.44012c-4.9,1.6 -8.1,8.1 -4.7,12.5c3.5,4.6 10.5,4.3 14.5,0.5c2.7,-2.5 3,-6.8 1.1,-9.5c-0.8,-3.6 -7.8,-4.5 -10.9,-3.5zm0.3,8.9c-0.9,-1.2 0.6,-2.4 1.5,-2.9c0.8,-0.4 1.8,-0.6 2.7,-0.6c0.1,0.3 0.3,0.7 0.5,0.9c1.9,2.2 -3.5,4.2 -4.7,2.6z" id="svg_51"/>
     </g>
     <path stroke="null" class="st1" d="m602.66471,-919.14012c-3.3,-4.6 -7.7,-7.4 -12.8,-9.8c-6.5,-3.1 -16.4,-4.7 -20.7,-10.8c-2.7,-3.9 -7.1,0.4 -4.9,3.3c0.4,20.3 5.7,40.3 6.2,60.6c0.1,2.5 2.6,3.4 4.4,2.9c0.1,0.1 0.1,0.3 0.2,0.4c9.3,12.8 -8.8,21.6 -19.4,18.7c-8.5,-2.3 -12.1,-11 -4.9,-17.3c4.8,-4.2 11.6,-4.3 17.2,-1.6c2.6,1.2 3.5,-2.1 1.6,-3.5c-7.1,-5.4 -17.7,-4.5 -23.8,2.2c-6.7,7.3 -5,17.8 3.2,23c8.1,5.1 20.1,5.2 27.6,-1c7,-5.7 8.6,-16 3.1,-23.3c-0.9,-1.1 -2.1,-1.4 -3.1,-1.1c-2.1,-11.3 -2.7,-22.8 -3.6,-34.3c5.4,0.3 10.8,0.1 16.2,0.9c3.4,0.5 6.5,1.5 9.2,3.8c2,1.8 6,7.3 3.1,9.9c-1.7,1.6 -1.1,3.2 0.3,4.2l-0.3,0.9c-0.8,2.4 2.4,4.9 3.9,2.3c5.4,-9.5 3.6,-21.7 -2.7,-30.4zm-4.3,7.2c-7.8,-4.4 -16.8,-3.8 -25.5,-4.4c-0.2,-0.3 -0.4,-0.5 -0.7,-0.7c-0.5,-5.2 -1,-10.4 -1.9,-15.6c6.5,3.4 13.3,6.1 19.7,9.8c5.9,3.4 9.6,8 11.4,13.4c-0.7,-1 -1.8,-1.8 -3,-2.5zm-76.4,32.9c0.1,-0.3 0.1,-0.6 0.1,-1c-3,-18.2 -4.9,-36.3 -8.7,-54.4c-0.3,-1.3 -1.3,-1.8 -2.2,-1.7c1,-1.5 -0.3,-4.2 -2.4,-3.5c-19,6.2 -36.3,15.2 -54.2,23.9c-1.9,0.9 -1,3.6 0.6,4.4c2.6,13.6 7.4,26.9 9.4,40.6c0.1,0.4 0.2,0.7 0.3,0.9c-0.1,0.7 0,1.4 0.5,1.9c7.3,7.9 -10.1,19.8 -17.2,12.5c-7.3,-7.4 6.2,-19.5 14.2,-15.5c1.5,0.8 2.8,-1.3 1.5,-2.3c-11.7,-9.4 -29.5,11.4 -17.6,21.5c11.2,9.5 31.9,-7.5 22.8,-17.7c0.3,-0.5 0.5,-1.2 0.2,-2c-2.7,-8 -4.4,-16.3 -6.1,-24.6c0.2,-0.1 0.4,-0.1 0.7,-0.3c14.5,-8.8 33.2,-13 49.3,-18.4c2.2,11.5 4,23.1 4.5,34.6c0,0.7 0.4,1.3 0.8,1.7c0.1,0.3 0.3,0.6 0.6,0.8c9.5,6.8 -3.1,19.9 -11.5,19.1c-6,-0.6 -9.2,-7 -6.7,-12.4c2.3,-5 8.7,-8.2 14.1,-6.5c3.3,1.1 3.7,-4.9 0.3,-4.8c-8.1,0.4 -15.8,2.1 -18.5,10.9c-2,6.8 1.4,14.6 8.4,16.7c13,3.9 27.9,-14.8 16.8,-24.4zm16.3,-54.8c-0.9,-4 -1.8,-7.9 -2.9,-11.8c15.7,-9.6 33.1,-16.2 50.3,-22.4c-0.3,0.5 -0.4,1 -0.3,1.7c1,4.6 2,9.3 2.9,14c-16.7,5.4 -33,14.3 -50,18.5zm354,49.5c0.1,-1.3 -0.4,-2.7 -1.8,-3.6c-14.8,-9 -29.6,-18.4 -44.2,-27.8c-2.9,-1.9 -5.1,1.6 -3.9,4.1c0,0.1 -0.1,0.2 -0.1,0.3c-2,19 -1.1,38.8 -0.6,57.9c0,0.8 0.3,1.4 0.6,1.9c-0.9,2.5 2,5.6 4.7,4.1c7.7,-4.4 14.7,-10.6 21.8,-15.9c7.2,-5.4 14.7,-10.4 22.2,-15.5c2,-1.4 2.1,-3.7 1.3,-5.5zm-397.2,-24c0.5,-15.9 1,-32.3 -0.4,-48.2c11.5,7.5 23,15 34.4,22.7c-11.4,7.8 -23.8,16.1 -34,25.5zm810,24c0.1,-1.3 -0.4,-2.7 -1.8,-3.6c-14.8,-9 -29.6,-18.4 -44.2,-27.8c-2.9,-1.9 -5.1,1.6 -3.9,4.1c0,0.1 -0.1,0.2 -0.1,0.3c-0.7,7.1 -1.1,14.3 -1.2,21.5c-13.8,-8.5 -27.6,-17.2 -41.2,-26c-2.9,-1.9 -5.1,1.6 -3.9,4.1c0,0.1 -0.1,0.2 -0.1,0.3c-2,19 -1.1,38.8 -0.6,57.9c0,0.8 0.3,1.4 0.6,1.9c-0.9,2.5 2,5.6 4.7,4.1c7.7,-4.4 14.7,-10.6 21.8,-15.9c6.1,-4.6 12.5,-8.8 18.8,-13.2c0.1,7.7 0.4,15.5 0.6,23.1c0,0.8 0.3,1.4 0.6,1.9c-0.9,2.5 2,5.6 4.7,4.1c7.7,-4.4 14.7,-10.6 21.8,-15.9c7.2,-5.4 14.7,-10.4 22.2,-15.5c1.9,-1.3 2.1,-3.6 1.2,-5.4zm-899.7,1.5c0.5,-15.9 1,-32.3 -0.4,-48.2c11.5,7.5 23,15 34.4,22.7c-11.4,7.8 -23.8,16.1 -34,25.5zm46.5,0c0.5,-15.9 1,-32.3 -0.4,-48.2c11.5,7.5 23,15 34.4,22.7c-11.4,7.8 -23.8,16.1 -34,25.5zm968.5,30.8c2,-19 1.1,-38.8 0.6,-57.9c0,-0.8 -0.3,-1.4 -0.6,-1.9c0.9,-2.5 -2,-5.6 -4.7,-4.1c-7.7,4.4 -14.7,10.6 -21.8,15.9c-6.1,4.6 -12.5,8.8 -18.8,13.2c-0.1,-7.7 -0.4,-15.5 -0.6,-23.1c0,-0.8 -0.3,-1.4 -0.6,-1.9c0.9,-2.5 -2,-5.6 -4.7,-4.1c-7.7,4.4 -14.7,10.6 -21.8,15.9c-7.2,5.4 -14.7,10.4 -22.2,15.5c-2.1,1.4 -2.2,3.7 -1.4,5.5c-0.1,1.3 0.4,2.7 1.8,3.6c14.8,9 29.6,18.4 44.2,27.8c2.9,1.9 5.1,-1.6 3.9,-4.1c0,-0.1 0.1,-0.2 0.1,-0.3c0.7,-7.1 1.1,-14.3 1.2,-21.5c13.8,8.5 27.6,17.2 41.2,26c2.9,1.9 5.1,-1.6 3.9,-4.1c0.3,-0.2 0.3,-0.3 0.3,-0.4zm-1055.7,-58c11.4,-7.7 23.8,-15.9 34,-25.4c-0.5,15.9 -1,32.3 0.4,48.2c-11.6,-7.5 -23.1,-15.1 -34.4,-22.8zm46.4,0c11.4,-7.7 23.8,-15.9 34,-25.4c-0.5,15.9 -1,32.3 0.4,48.2c-11.5,-7.5 -23,-15.1 -34.4,-22.8zm1195.9,31.4c0,-11.2 0.8,-22.7 -1,-33.7c0,-0.2 -0.1,-0.4 -0.2,-0.6c0.1,-2.3 -1.3,-4.8 -4.2,-4.7c-3.4,0 -6.8,0.1 -10.2,0.2c-3.2,0.1 -6.5,-0.1 -9.5,0.9c-2.4,0.7 -2.5,3.3 -1.3,4.9c-0.5,7.3 -0.8,14.7 -1,22c-13.9,-8.5 -27.8,-17.3 -41.5,-26.2c-2.9,-1.9 -5.1,1.6 -3.9,4.1c0,0.1 -0.1,0.2 -0.1,0.3c-2,19 -1.1,38.8 -0.6,57.9c0,0.8 0.3,1.4 0.6,1.9c-0.9,2.5 2,5.6 4.7,4.1c7.7,-4.4 14.7,-10.6 21.8,-15.9c6.1,-4.6 12.4,-8.8 18.7,-13.2c-0.1,9.1 0.1,18.2 0.6,27.2l0,0.1c-0.2,1.7 0.9,3.7 3.1,3.9c5.8,0.6 12.4,0.9 18.1,0.1c0.8,-0.1 1.4,-0.6 1.8,-1.2c1.4,0.3 2.8,-0.3 3.1,-2.3c1.8,-9.7 1.1,-19.9 1,-29.8zm-1261.9,-11.6c0.5,-15.9 1,-32.3 -0.4,-48.2c11.5,7.5 23,15 34.4,22.7c-11.4,7.8 -23.8,16.1 -34,25.5zm58,-24.6c0,10.4 -1,21.1 0.4,31.4c-3.8,-0.5 -7.8,-0.4 -11.8,-0.2c1,-19 0.5,-38.5 -0.7,-57.5c1.6,0.1 3.3,0.1 4.9,0.1c2.5,0.1 5,0.1 7.6,0.2c-0.8,8.6 -0.4,17.4 -0.4,26zm1109,63.7c2,-19 1.1,-38.8 0.6,-57.9c0,-0.8 -0.3,-1.4 -0.6,-1.9c0.9,-2.5 -2,-5.6 -4.7,-4.1c-7.7,4.4 -14.7,10.6 -21.8,15.9c-6.1,4.6 -12.4,8.8 -18.7,13.2c0.1,-9.1 -0.1,-18.2 -0.6,-27.2l0,-0.1c0.2,-1.7 -0.9,-3.7 -3.1,-3.9c-5.8,-0.6 -12.4,-0.9 -18.1,-0.1c-0.8,0.1 -1.4,0.6 -1.8,1.2c-1.4,-0.3 -2.8,0.3 -3.1,2.3c-1.6,9.8 -0.9,20 -0.9,29.9c0,11.2 -0.8,22.7 1,33.7c0,0.2 0.1,0.4 0.2,0.6c-0.1,2.3 1.3,4.8 4.2,4.7c3.4,0 6.8,-0.1 10.2,-0.2c3.2,-0.1 6.5,0.1 9.5,-0.9c2.4,-0.7 2.5,-3.3 1.3,-4.9c0.5,-7.3 0.8,-14.7 1,-22c13.9,8.5 27.8,17.3 41.5,26.2c2.9,1.9 5.1,-1.6 3.9,-4.1c-0.1,-0.2 0,-0.2 0,-0.4zm-1166.8,-65.5c-2.5,-0.1 -5,-0.1 -7.6,-0.2c0.9,-8.6 0.4,-17.3 0.4,-26c0,-10.4 1,-21.1 -0.4,-31.4c3.8,0.5 7.8,0.4 11.8,0.2c-1,19 -0.5,38.5 0.7,57.5c-1.6,0 -3.3,0 -4.9,-0.1zm17,-25.3c11.4,-7.7 23.8,-15.9 34,-25.4c-0.5,15.9 -1,32.3 0.4,48.2c-11.6,-7.5 -23.1,-15.1 -34.4,-22.8z" id="svg_52"/>
     <g stroke="null" class="st1" id="svg_53">
      <path stroke="null" d="m940.76471,-912.44012c0,-0.2 -0.1,-0.4 -0.2,-0.6c0.1,-2.3 -1.3,-4.8 -4.2,-4.7c-3.4,0 -6.8,0.1 -10.2,0.2c-3.2,0.1 -6.5,-0.1 -9.5,0.9c-2.4,0.7 -2.5,3.3 -1.3,4.9c-1.3,20.6 -1.9,41.7 -0.7,62.3l0,0.1c-0.2,1.7 0.9,3.7 3.1,3.9c5.8,0.6 12.4,0.9 18.1,0.1c0.8,-0.1 1.4,-0.6 1.8,-1.2c1.4,0.3 2.8,-0.3 3.1,-2.3c1.6,-9.8 0.9,-20 0.9,-29.9c0,-11.1 0.8,-22.6 -0.9,-33.7zm-7.1,29c0,10.4 -1,21.1 0.4,31.4c-3.8,-0.5 -7.8,-0.4 -11.8,-0.2c1,-19 0.5,-38.5 -0.7,-57.5c1.6,0.1 3.3,0.1 4.9,0.1c2.5,0.1 5,0.1 7.6,0.2c-0.8,8.6 -0.4,17.4 -0.4,26zm44.8,4.8c0,-11.2 0.8,-22.7 -1,-33.7c0,-0.2 -0.1,-0.4 -0.2,-0.6c0.1,-2.3 -1.3,-4.8 -4.2,-4.7c-3.4,0 -6.8,0.1 -10.2,0.2c-3.2,0.1 -6.5,-0.1 -9.5,0.9c-2.4,0.7 -2.5,3.3 -1.3,4.9c-1.3,20.6 -1.9,41.7 -0.7,62.3l0,0.1c-0.2,1.7 0.9,3.7 3.1,3.9c5.8,0.6 12.4,0.9 18.1,0.1c0.8,-0.1 1.4,-0.6 1.8,-1.2c1.4,0.3 2.8,-0.3 3.1,-2.3c1.7,-9.8 1,-20 1,-29.9zm-52.8,-9.6c0,10.4 -1,21.1 0.4,31.4c-3.8,-0.5 -7.8,-0.4 -11.8,-0.2c1,-19 0.5,-38.5 -0.7,-57.5c1.6,0.1 3.3,0.1 4.9,0.1c2.5,0.1 5,0.1 7.6,0.2c-0.9,8.6 -0.4,17.4 -0.4,26z" id="svg_54"/>
     </g>
     <path stroke="null" class="st1" d="m1054.96471,-914.04012c-0.4,-0.1 -0.7,-0.2 -1,-0.2c-13.4,-7.2 -29.4,-3.8 -38.8,10.9c-10.3,16.1 -5.1,39 11.3,48.8c17.2,10.3 39.3,4 48.1,-14c8.9,-18 -1.2,-38.9 -19.6,-45.5zm12.9,37.7c-4,14.2 -20.1,21.4 -33.5,15.9c-13,-5.3 -18.9,-19 -14.8,-32.3c3.6,-11.6 18.6,-21.3 30.3,-16.8c0,1.5 0.7,3 2.3,3.7c11.5,5.1 19.4,16.4 15.7,29.5zm110.7,-34.8c0,-2 -1.2,-3.2 -2.7,-3.6c-0.6,-0.8 -1.5,-1.3 -2.7,-1.5c-20.2,-2.4 -43.1,-1.4 -63.3,0.5c-2.7,0.2 -3.3,2.8 -2.3,4.6c-1.3,19.6 -1.7,39.9 -0.5,59.5l0,0.2c-0.2,1.9 1.1,4 3.5,4.2c20.3,2.2 42.6,1.6 63,0.3c2.2,-0.1 3.3,-1.6 3.4,-3.2c0.5,-0.5 0.8,-1.2 0.8,-2.1c0.9,-19.5 1,-39.2 0.8,-58.9zm-175,91.2c0.9,-17.9 0.6,-36.3 -0.5,-54.2c18.5,1.6 38.7,2.3 57.1,0.4c-0.2,17.9 0,35.9 0.7,53.7c-18.6,-1.1 -38.7,-1.6 -57.3,0.1zm-282,-86.1c0,-6.9 -0.1,-13.8 -0.3,-20.8c0,-0.6 -0.2,-1.1 -0.4,-1.5c-0.1,-0.3 -0.2,-0.6 -0.4,-1c-0.4,-2 -3.2,-3.1 -4.5,-1.9c-5.5,0 -11.1,-0.1 -16.6,-0.2c0,-1.4 0,-2.9 -0.1,-4.3c0.2,-4 -5.9,-4.1 -6.1,0c-0.1,1.4 -0.1,2.8 -0.1,4.2c-11.3,-0.2 -22.6,-0.4 -33.8,-0.2l0,-2.7c0,-0.8 -0.3,-1.4 -0.7,-1.9c-0.4,-2.9 -4.8,-3.1 -5.1,0c-0.4,0.5 -0.7,1.1 -0.6,2l0,2.8c-2.3,0.1 -4.7,0.2 -7,0.3c-3.8,0 -7.7,0.1 -11.5,0.1c-3.1,0.1 -3.8,3.3 -2.4,5.4c-2.1,10 -1.1,20.5 -1.1,30.7c0.1,12.5 -0.1,24.8 1,37.2l0,0.1c-0.8,2 0.4,4.8 3.1,4.9c2.6,0.1 5.1,0.1 7.7,0.2c24.4,1.2 49.3,0.1 73.7,0.1c1.4,0 2.3,-0.7 2.8,-1.6c1.2,-0.4 2.2,-1.5 2.2,-3.2c0.1,-16.2 0.5,-32.5 0.2,-48.7zm206.7,68c2.3,0.1 4.5,0.2 6.8,0.3c0,2.2 0,4.3 0.1,6.5c-0.1,3.9 6,4.1 6.1,0c0.1,-2.1 0.1,-4.2 0.1,-6.3c11.2,0.2 22.5,0 33.7,-0.2c0,2.1 0,4.3 0.2,6.3c0.4,3.1 5.6,4.7 6.1,0.8c0.3,-2.4 0.3,-4.8 0.3,-7.2c5,-0.1 10.1,-0.2 15.1,-0.2c-0.1,5 -0.1,9.9 -0.2,14.9c-25.2,-0.4 -51.2,-1.4 -76.3,0.6c0,-5.2 -0.2,-10.4 -1.2,-15.5l9.2,0zm-3.8,64.3c-1.8,0 -3.6,0.1 -5.4,0.1c0.8,-10.9 0.9,-21.8 0.9,-32.8c0,-3.4 0.1,-6.9 0.2,-10.3c25.1,2 51.1,1 76.3,0.6c-0.1,11.8 0,23.6 0.1,35.4l0,6.9c-23.9,-0.1 -48.2,-1.1 -72.1,0.1z" id="svg_55"/>
     <g stroke="null" class="st1" id="svg_56">
      <path stroke="null" d="m758.86471,-889.04012c2.3,10.1 16.8,14.9 26.1,13.3c15.6,-2.6 14.2,-22.9 13.7,-34.6c-0.5,-12.3 -3.6,-25.3 -17.5,-27.6c-13,-2.2 -23.2,4.8 -23.3,17.9c-0.9,9.7 -0.3,20.1 0.3,29.7c0.1,0.4 0.3,0.9 0.7,1.3zm4.1,-30.3c-1,-13.9 18.7,-16.9 25.6,-7.2c3.2,4.5 3.4,11.2 3.5,16.8c-0.2,0 -0.3,-0.1 -0.5,-0.1c-9.4,-0.3 -19.1,-0.2 -28.5,0.5c0,-3 -0.1,-5.9 -0.3,-8.8c0.2,-0.3 0.2,-0.7 0.2,-1.2zm0.1,15.5c9.5,0.8 19.4,0.9 28.9,0.5c0.2,0 0.3,-0.1 0.4,-0.1c0.2,5.7 0.2,13 -1.9,16.2c-4.6,7.1 -24.5,6.2 -26.5,-4.1c-0.2,-0.9 -0.7,-1.5 -1.4,-1.8c0.2,-3.4 0.4,-7.1 0.5,-10.7z" id="svg_57"/>
      <path stroke="null" d="m814.86471,-906.84012c-0.4,-4.4 -7.3,-4.5 -6.9,0.1c0.6,7.4 1.5,15.1 -2.4,21.8c-5.3,9.3 -16.1,12.6 -26.1,12.6c-20.8,0 -31,-13.1 -31.9,-32.9c-0.2,-3.3 -5.4,-3.5 -5.1,0c1.2,10.4 1.6,21.3 8.9,29.6c6.7,7.7 17.5,10.2 27.4,10.4c-0.2,2.8 -0.1,5.5 0,8.3c-1.6,0 -3.2,0.1 -4.8,0.2l-5.2,0c-1.3,0 -2.2,0.6 -2.7,1.4c-0.1,0.1 -0.1,0.2 -0.2,0.2c-0.2,0.2 -0.4,0.4 -0.6,0.7c-0.4,0.6 -0.6,1.4 -0.8,2.3c0,0.1 -0.1,0.2 -0.1,0.4l0,2c0,0.2 0.1,0.5 0.1,0.7c0,0.1 0.1,0.2 0.1,0.3c0.1,0.4 0.3,0.7 0.6,1c0.2,0.2 0.4,0.4 0.7,0.6c0.1,0.1 0.2,0.1 0.4,0.2c0.3,0.1 0.5,0.2 0.8,0.2l0.2,0c0.1,0 0.2,0.1 0.3,0.1l0.1,0c8.6,1.8 18.5,1.3 27.3,0.7c2.7,-0.2 3.5,-2.6 2.8,-4.5l0,-0.2l0,-0.1l0,-1.1c0.1,-0.4 0.2,-0.8 0.2,-1.2c-0.1,-1.6 -1.3,-3.2 -3.3,-3.3c-3.1,-0.1 -6.3,-0.3 -9.6,-0.4c0.1,-2.9 0.2,-5.8 0,-8.6c22,-2.5 32,-19.7 29.8,-41.5z" id="svg_58"/>
     </g>
    </g>
    <path stroke="null" d="m-13.93529,-157.54012c5.7,-1.2 11.8,-1.3 17.6,-0.2c1.4,-2.1 2.7,-4.2 4,-6.4c-1.1,-0.3 -2.2,-0.5 -3.3,-0.7c-32.2,-5 -60.4,20.5 -57.7,52.6c0.3,3.9 6,3.4 5.2,-0.7c-4.3,-21.9 13.9,-40.4 34.2,-44.6zm47.6,15c-1.9,-4.6 -4.7,-8.6 -8.1,-11.9c-0.9,2.7 -1.7,5.3 -2.7,8c6.5,9 11.1,27.4 4.3,36.1c-2.7,3.5 1.8,7.6 5.1,4.8c9.2,-7.9 5.4,-27.2 1.4,-37zm-20.9,-14.9c-6.2,7.3 -42.3,34.5 -25.6,46.7c14.4,10.5 27.5,-32.8 29.8,-42.8c2.3,-2.3 -1.9,-6.6 -4.2,-3.9zm-9.4,25.4c-1.5,2.9 -10,22 -14.5,13.3c-2.6,-5.1 8.6,-15.2 11.5,-18.2c3,-3.1 5.9,-6.2 8.9,-9.2c-1.7,4.7 -3.6,9.4 -5.9,14.1z" id="svg_59"/>
   </g>
</svg>